<svg xmlns="http://www.w3.org/2000/svg" viewBox="0 0 900 720" font-family="Inter, system-ui, sans-serif">
  <defs>
    <marker id="arrow" markerWidth="10" markerHeight="7" refX="9" refY="3.5" orient="auto">
      <polygon points="0 0, 10 3.5, 0 7" fill="#6366f1"/>
    </marker>
    <marker id="arrow-gray" markerWidth="10" markerHeight="7" refX="9" refY="3.5" orient="auto">
      <polygon points="0 0, 10 3.5, 0 7" fill="#64748b"/>
    </marker>
    <filter id="shadow">
      <feDropShadow dx="0" dy="2" stdDeviation="3" flood-color="#0000004d"/>
    </filter>
  </defs>

  <!-- Background -->
  <rect width="900" height="720" fill="#0f0f0f"/>

  <!-- Title -->
  <text x="450" y="38" text-anchor="middle" fill="#f1f5f9" font-size="18" font-weight="700">DarkMedia · Prompt AI — Flow de déploiement</text>
  <text x="450" y="58" text-anchor="middle" fill="#64748b" font-size="12">De la clé API à la production</text>

  <!-- ===== LANE: DEVELOPER ===== -->
  <rect x="16" y="72" width="868" height="36" rx="6" fill="#1e1e2e" opacity="0.8"/>
  <text x="30" y="95" fill="#94a3b8" font-size="11" font-weight="600" letter-spacing="1">DÉVELOPPEUR</text>

  <!-- Dev box: git push -->
  <rect x="60" y="118" width="130" height="56" rx="8" fill="#1e293b" stroke="#334155" stroke-width="1.5" filter="url(#shadow)"/>
  <text x="125" y="141" text-anchor="middle" fill="#f1f5f9" font-size="12" font-weight="600">git push</text>
  <text x="125" y="158" text-anchor="middle" fill="#94a3b8" font-size="10">branch → main</text>

  <!-- ===== LANE: GITHUB ===== -->
  <rect x="16" y="192" width="868" height="36" rx="6" fill="#1e1e2e" opacity="0.8"/>
  <text x="30" y="215" fill="#94a3b8" font-size="11" font-weight="600" letter-spacing="1">GITHUB</text>

  <!-- GitHub Actions trigger -->
  <rect x="60" y="238" width="130" height="56" rx="8" fill="#1e293b" stroke="#6366f1" stroke-width="1.5" filter="url(#shadow)"/>
  <text x="125" y="261" text-anchor="middle" fill="#a5b4fc" font-size="12" font-weight="600">GitHub Actions</text>
  <text x="125" y="278" text-anchor="middle" fill="#94a3b8" font-size="10">on: push main</text>

  <!-- Checkout -->
  <rect x="230" y="238" width="130" height="56" rx="8" fill="#1e293b" stroke="#334155" stroke-width="1.5" filter="url(#shadow)"/>
  <text x="295" y="261" text-anchor="middle" fill="#f1f5f9" font-size="12" font-weight="600">Checkout</text>
  <text x="295" y="278" text-anchor="middle" fill="#94a3b8" font-size="10">actions/checkout@v4</text>

  <!-- ===== LANE: DOPPLER ===== -->
  <rect x="16" y="312" width="868" height="36" rx="6" fill="#1e1e2e" opacity="0.8"/>
  <text x="30" y="335" fill="#94a3b8" font-size="11" font-weight="600" letter-spacing="1">DOPPLER (SECRETS MANAGER)</text>

  <!-- Doppler CLI -->
  <rect x="230" y="358" width="130" height="56" rx="8" fill="#1e293b" stroke="#f59e0b" stroke-width="1.5" filter="url(#shadow)"/>
  <text x="295" y="381" text-anchor="middle" fill="#fcd34d" font-size="12" font-weight="600">Doppler CLI</text>
  <text x="295" y="398" text-anchor="middle" fill="#94a3b8" font-size="10">fetch secrets</text>

  <!-- Doppler secrets box -->
  <rect x="400" y="345" width="160" height="82" rx="8" fill="#1e293b" stroke="#f59e0b" stroke-width="1.5" filter="url(#shadow)"/>
  <text x="480" y="368" text-anchor="middle" fill="#fcd34d" font-size="11" font-weight="600">Secrets Doppler</text>
  <line x1="410" y1="376" x2="550" y2="376" stroke="#334155" stroke-width="1"/>
  <text x="415" y="391" fill="#94a3b8" font-size="10">SUPABASE_URL</text>
  <text x="415" y="407" fill="#94a3b8" font-size="10">SUPABASE_ANON_KEY</text>
  <text x="415" y="423" fill="#94a3b8" font-size="10">GEMINI_KEY*</text>

  <!-- Generate config.js -->
  <rect x="600" y="358" width="130" height="56" rx="8" fill="#1e293b" stroke="#334155" stroke-width="1.5" filter="url(#shadow)"/>
  <text x="665" y="381" text-anchor="middle" fill="#f1f5f9" font-size="12" font-weight="600">config.js</text>
  <text x="665" y="398" text-anchor="middle" fill="#94a3b8" font-size="10">généré à deploy-time</text>

  <!-- ===== LANE: GITHUB PAGES ===== -->
  <rect x="16" y="432" width="868" height="36" rx="6" fill="#1e1e2e" opacity="0.8"/>
  <text x="30" y="455" fill="#94a3b8" font-size="11" font-weight="600" letter-spacing="1">GITHUB PAGES</text>

  <!-- Upload artifact -->
  <rect x="600" y="478" width="130" height="56" rx="8" fill="#1e293b" stroke="#334155" stroke-width="1.5" filter="url(#shadow)"/>
  <text x="665" y="501" text-anchor="middle" fill="#f1f5f9" font-size="12" font-weight="600">Upload artifact</text>
  <text x="665" y="518" text-anchor="middle" fill="#94a3b8" font-size="10">app/ directory</text>

  <!-- Deploy Pages -->
  <rect x="760" y="478" width="116" height="56" rx="8" fill="#1e293b" stroke="#6366f1" stroke-width="1.5" filter="url(#shadow)"/>
  <text x="818" y="501" text-anchor="middle" fill="#a5b4fc" font-size="12" font-weight="600">Deploy Pages</text>
  <text x="818" y="518" text-anchor="middle" fill="#94a3b8" font-size="10">jfcyberknight.github.io</text>

  <!-- ===== LANE: SUPABASE ===== -->
  <rect x="16" y="552" width="868" height="36" rx="6" fill="#1e1e2e" opacity="0.8"/>
  <text x="30" y="575" fill="#94a3b8" font-size="11" font-weight="600" letter-spacing="1">SUPABASE</text>

  <!-- Supabase Auth -->
  <rect x="60" y="598" width="130" height="56" rx="8" fill="#1e293b" stroke="#22c55e" stroke-width="1.5" filter="url(#shadow)"/>
  <text x="125" y="621" text-anchor="middle" fill="#86efac" font-size="12" font-weight="600">Auth</text>
  <text x="125" y="638" text-anchor="middle" fill="#94a3b8" font-size="10">JWT · RLS</text>

  <!-- Supabase DB -->
  <rect x="230" y="598" width="130" height="56" rx="8" fill="#1e293b" stroke="#22c55e" stroke-width="1.5" filter="url(#shadow)"/>
  <text x="295" y="621" text-anchor="middle" fill="#86efac" font-size="12" font-weight="600">PostgreSQL</text>
  <text x="295" y="638" text-anchor="middle" fill="#94a3b8" font-size="10">prompts · categories</text>

  <!-- Edge Function -->
  <rect x="400" y="598" width="160" height="56" rx="8" fill="#1e293b" stroke="#22c55e" stroke-width="1.5" filter="url(#shadow)"/>
  <text x="480" y="621" text-anchor="middle" fill="#86efac" font-size="12" font-weight="600">Edge Function</text>
  <text x="480" y="638" text-anchor="middle" fill="#94a3b8" font-size="10">ai-proxy (Deno)</text>

  <!-- Gemini API -->
  <rect x="600" y="598" width="130" height="56" rx="8" fill="#1e293b" stroke="#8b5cf6" stroke-width="1.5" filter="url(#shadow)"/>
  <text x="665" y="621" text-anchor="middle" fill="#c4b5fd" font-size="12" font-weight="600">Gemini API</text>
  <text x="665" y="638" text-anchor="middle" fill="#94a3b8" font-size="10">gemini-3.5-flash</text>

  <!-- ===================== ARROWS ===================== -->

  <!-- Dev → GitHub Actions (down) -->
  <line x1="125" y1="174" x2="125" y2="238" stroke="#6366f1" stroke-width="1.5" marker-end="url(#arrow)"/>

  <!-- GitHub Actions → Checkout -->
  <line x1="190" y1="266" x2="230" y2="266" stroke="#6366f1" stroke-width="1.5" marker-end="url(#arrow)"/>

  <!-- Checkout → Doppler CLI (down) -->
  <line x1="295" y1="294" x2="295" y2="358" stroke="#6366f1" stroke-width="1.5" marker-end="url(#arrow)"/>

  <!-- Doppler CLI → Doppler secrets -->
  <line x1="360" y1="386" x2="400" y2="386" stroke="#f59e0b" stroke-width="1.5" marker-end="url(#arrow)"/>

  <!-- Doppler secrets → config.js -->
  <line x1="560" y1="386" x2="600" y2="386" stroke="#f59e0b" stroke-width="1.5" marker-end="url(#arrow)"/>

  <!-- config.js → Upload artifact (down) -->
  <line x1="665" y1="414" x2="665" y2="478" stroke="#6366f1" stroke-width="1.5" marker-end="url(#arrow)"/>

  <!-- Upload → Deploy -->
  <line x1="730" y1="506" x2="760" y2="506" stroke="#6366f1" stroke-width="1.5" marker-end="url(#arrow)"/>

  <!-- Deploy Pages → Auth (browser uses app) - curved path back to supabase -->
  <path d="M 818 534 Q 818 570 480 570 Q 125 570 125 598" fill="none" stroke="#64748b" stroke-width="1.5" stroke-dasharray="5,4" marker-end="url(#arrow-gray)"/>

  <!-- Auth → DB -->
  <line x1="190" y1="626" x2="230" y2="626" stroke="#22c55e" stroke-width="1.5" marker-end="url(#arrow)"/>

  <!-- App → Edge Function (from pages) -->
  <path d="M 818 534 Q 840 626 560 626" fill="none" stroke="#8b5cf6" stroke-width="1.5" stroke-dasharray="5,4" marker-end="url(#arrow-gray)"/>

  <!-- Edge Function → Gemini -->
  <line x1="560" y1="626" x2="600" y2="626" stroke="#8b5cf6" stroke-width="1.5" marker-end="url(#arrow)"/>

  <!-- ===================== LEGEND ===================== -->
  <rect x="16" y="672" width="868" height="36" rx="6" fill="#1e1e2e" opacity="0.8"/>
  <circle cx="40" cy="690" r="5" fill="#6366f1"/>
  <text x="52" y="694" fill="#94a3b8" font-size="10">Pipeline CI/CD</text>
  <circle cx="150" cy="690" r="5" fill="#f59e0b"/>
  <text x="162" y="694" fill="#94a3b8" font-size="10">Doppler secrets</text>
  <circle cx="260" cy="690" r="5" fill="#22c55e"/>
  <text x="272" y="694" fill="#94a3b8" font-size="10">Supabase services</text>
  <circle cx="370" cy="690" r="5" fill="#8b5cf6"/>
  <text x="382" y="694" fill="#94a3b8" font-size="10">Appel IA (runtime)</text>
  <line x1="470" y1="690" x2="494" y2="690" stroke="#64748b" stroke-width="1.5" stroke-dasharray="4,3"/>
  <text x="500" y="694" fill="#94a3b8" font-size="10">Flux navigateur (runtime)</text>
  <text x="860" y="694" text-anchor="end" fill="#475569" font-size="10">* GEMINI_KEY → Supabase Secrets (pas Doppler)</text>
</svg>
